<svg xmlns="http://www.w3.org/2000/svg" width="200" height="200" viewBox="0 0 200 200" version="1.1"><path d="M 54.750 56.570 C 54.337 56.990, 54 58.507, 54 59.941 C 54 62.406, 54.398 62.612, 61.250 63.703 C 74.954 65.883, 85.694 72.365, 92.146 82.348 C 96.632 89.288, 97.336 92.144, 93.129 86.337 C 87.967 79.211, 77.479 73.646, 65 71.412 C 53.821 69.411, 54 69.369, 54 74 C 54 77.985, 54.015 78, 57.912 78 C 69.548 78, 85.636 83.362, 91.832 89.304 C 97.008 94.268, 97.839 96.509, 93.382 93.485 C 86.962 89.128, 69.397 85, 57.276 85 C 54.355 85, 54 85.303, 54 87.800 C 54 92.086, 55.665 93, 63.476 93 C 73.197 93, 86.346 94.755, 92.703 96.901 L 98 98.690 98 95.950 C 98 91.477, 94.271 80.753, 90.999 75.812 C 86.523 69.055, 79.741 63.242, 72.239 59.731 C 65.832 56.733, 56.286 55.008, 54.750 56.570 M 130.892 58.330 C 127.808 59.612, 123.665 61.662, 121.686 62.885 C 117.261 65.620, 109.467 74.161, 107.030 78.948 C 104.672 83.578, 102 92.650, 102 96.026 L 102 98.690 107.297 96.901 C 113.654 94.755, 126.803 93, 136.524 93 C 144.335 93, 146 92.086, 146 87.800 C 146 85.230, 145.692 85, 142.250 85.006 C 135.629 85.016, 119.516 87.835, 113.755 89.991 C 110.681 91.141, 106.891 93.075, 105.333 94.289 L 102.500 96.497 104.424 93.518 C 107.178 89.254, 109.686 87.275, 116.583 83.924 C 122.864 80.872, 135.228 78, 142.088 78 C 145.985 78, 146 77.985, 146 74 C 146 69.352, 146.236 69.404, 134.581 71.481 C 124.797 73.224, 115.025 77.922, 109.325 83.623 C 104.105 88.842, 103.847 88.185, 108.439 81.367 C 114.640 72.159, 125.561 65.801, 138.796 63.695 L 146.092 62.534 145.796 59.517 C 145.519 56.695, 145.209 56.484, 141 56.250 C 138.075 56.087, 134.537 56.815, 130.892 58.330 M 92.364 103.204 C 86.106 105.281, 73.027 107, 63.476 107 C 55.665 107, 54 107.914, 54 112.200 C 54 114.697, 54.355 115, 57.276 115 C 69.397 115, 86.962 110.872, 93.382 106.515 C 97.839 103.491, 97.008 105.732, 91.832 110.696 C 85.636 116.638, 69.548 122, 57.912 122 C 54.015 122, 54 122.015, 54 126 C 54 130.648, 53.764 130.596, 65.419 128.519 C 75.203 126.776, 84.975 122.078, 90.675 116.377 C 95.895 111.158, 96.153 111.815, 91.561 118.633 C 85.360 127.841, 74.439 134.199, 61.204 136.305 L 53.908 137.466 54.204 140.483 C 54.495 143.446, 54.600 143.500, 60.087 143.482 C 71.267 143.447, 87.026 132.710, 92.955 121.088 C 95.516 116.068, 98.202 106.498, 97.818 103.762 L 97.500 101.500 92.364 103.204 M 102 104.050 C 102 108.523, 105.729 119.247, 109.001 124.188 C 116.224 135.093, 129.621 143.428, 140 143.475 C 145.392 143.500, 145.506 143.441, 145.796 140.483 L 146.092 137.466 138.796 136.305 C 125.045 134.116, 114.314 127.648, 107.854 117.652 C 103.661 111.165, 102.450 107.255, 106.463 113.160 C 109.448 117.553, 119.228 124.262, 125.737 126.382 C 130.030 127.780, 141.581 129.973, 144.750 129.992 C 145.543 129.997, 146 128.537, 146 126 C 146 122.015, 145.985 122, 142.088 122 C 130.452 122, 114.364 116.638, 108.168 110.696 C 102.992 105.732, 102.161 103.491, 106.618 106.515 C 113.038 110.872, 130.603 115, 142.724 115 C 145.645 115, 146 114.697, 146 112.200 C 146 107.914, 144.335 107, 136.524 107 C 126.803 107, 113.654 105.245, 107.297 103.099 L 102 101.310 102 104.050" stroke="none" fill="#f1f4fb" fill-rule="evenodd"/><path d="M -0 100.005 L -0 200.010 100.250 199.755 L 200.500 199.500 200.755 99.750 L 201.010 0 100.505 0 L 0 0 -0 100.005 M 0.481 100.500 C 0.481 155.500, 0.602 178.147, 0.750 150.826 C 0.898 123.506, 0.898 78.506, 0.750 50.826 C 0.602 23.147, 0.481 45.500, 0.481 100.500 M 54.750 56.570 C 54.337 56.990, 54 58.507, 54 59.941 C 54 62.406, 54.398 62.612, 61.250 63.703 C 74.954 65.883, 85.694 72.365, 92.146 82.348 C 96.632 89.288, 97.336 92.144, 93.129 86.337 C 87.967 79.211, 77.479 73.646, 65 71.412 C 53.821 69.411, 54 69.369, 54 74 C 54 77.985, 54.015 78, 57.912 78 C 69.548 78, 85.636 83.362, 91.832 89.304 C 97.008 94.268, 97.839 96.509, 93.382 93.485 C 86.962 89.128, 69.397 85, 57.276 85 C 54.355 85, 54 85.303, 54 87.800 C 54 92.086, 55.665 93, 63.476 93 C 73.197 93, 86.346 94.755, 92.703 96.901 L 98 98.690 98 95.950 C 98 91.477, 94.271 80.753, 90.999 75.812 C 86.523 69.055, 79.741 63.242, 72.239 59.731 C 65.832 56.733, 56.286 55.008, 54.750 56.570 M 130.892 58.330 C 127.808 59.612, 123.665 61.662, 121.686 62.885 C 117.261 65.620, 109.467 74.161, 107.030 78.948 C 104.672 83.578, 102 92.650, 102 96.026 L 102 98.690 107.297 96.901 C 113.654 94.755, 126.803 93, 136.524 93 C 144.335 93, 146 92.086, 146 87.800 C 146 85.230, 145.692 85, 142.250 85.006 C 135.629 85.016, 119.516 87.835, 113.755 89.991 C 110.681 91.141, 106.891 93.075, 105.333 94.289 L 102.500 96.497 104.424 93.518 C 107.178 89.254, 109.686 87.275, 116.583 83.924 C 122.864 80.872, 135.228 78, 142.088 78 C 145.985 78, 146 77.985, 146 74 C 146 69.352, 146.236 69.404, 134.581 71.481 C 124.797 73.224, 115.025 77.922, 109.325 83.623 C 104.105 88.842, 103.847 88.185, 108.439 81.367 C 114.640 72.159, 125.561 65.801, 138.796 63.695 L 146.092 62.534 145.796 59.517 C 145.519 56.695, 145.209 56.484, 141 56.250 C 138.075 56.087, 134.537 56.815, 130.892 58.330 M 92.364 103.204 C 86.106 105.281, 73.027 107, 63.476 107 C 55.665 107, 54 107.914, 54 112.200 C 54 114.697, 54.355 115, 57.276 115 C 69.397 115, 86.962 110.872, 93.382 106.515 C 97.839 103.491, 97.008 105.732, 91.832 110.696 C 85.636 116.638, 69.548 122, 57.912 122 C 54.015 122, 54 122.015, 54 126 C 54 130.648, 53.764 130.596, 65.419 128.519 C 75.203 126.776, 84.975 122.078, 90.675 116.377 C 95.895 111.158, 96.153 111.815, 91.561 118.633 C 85.360 127.841, 74.439 134.199, 61.204 136.305 L 53.908 137.466 54.204 140.483 C 54.495 143.446, 54.600 143.500, 60.087 143.482 C 71.267 143.447, 87.026 132.710, 92.955 121.088 C 95.516 116.068, 98.202 106.498, 97.818 103.762 L 97.500 101.500 92.364 103.204 M 102 104.050 C 102 108.523, 105.729 119.247, 109.001 124.188 C 116.224 135.093, 129.621 143.428, 140 143.475 C 145.392 143.500, 145.506 143.441, 145.796 140.483 L 146.092 137.466 138.796 136.305 C 125.045 134.116, 114.314 127.648, 107.854 117.652 C 103.661 111.165, 102.450 107.255, 106.463 113.160 C 109.448 117.553, 119.228 124.262, 125.737 126.382 C 130.030 127.780, 141.581 129.973, 144.750 129.992 C 145.543 129.997, 146 128.537, 146 126 C 146 122.015, 145.985 122, 142.088 122 C 130.452 122, 114.364 116.638, 108.168 110.696 C 102.992 105.732, 102.161 103.491, 106.618 106.515 C 113.038 110.872, 130.603 115, 142.724 115 C 145.645 115, 146 114.697, 146 112.200 C 146 107.914, 144.335 107, 136.524 107 C 126.803 107, 113.654 105.245, 107.297 103.099 L 102 101.310 102 104.050" stroke="none" fill="#3c54fa" fill-rule="evenodd"/></svg>