<svg xmlns="http://www.w3.org/2000/svg" width="200" height="200" viewBox="0 0 200 200" version="1.1"><path d="M 145 117.500 C 145 118.325, 145.675 119, 146.500 119 C 147.325 119, 148 118.325, 148 117.500 C 148 116.675, 147.325 116, 146.500 116 C 145.675 116, 145 116.675, 145 117.500 M 138.037 117.967 C 136.961 118.640, 136.639 120.521, 136.819 125.088 C 137.113 132.531, 137.355 133.009, 140.809 132.968 C 143.260 132.939, 143.344 132.818, 141.750 131.608 C 139.703 130.054, 139.334 123.437, 141.250 122.659 C 142.166 122.288, 142.197 121.931, 141.366 121.326 C 140.742 120.872, 140.067 119.724, 139.866 118.776 C 139.603 117.540, 139.087 117.311, 138.037 117.967 M 103 127.167 C 103 131.587, 103.350 133, 104.445 133 C 105.459 133, 105.981 131.586, 106.195 128.259 C 106.425 124.687, 106.931 123.436, 108.250 123.186 C 109.730 122.905, 110 123.635, 110 127.927 C 110 131.770, 110.364 133, 111.500 133 C 112.564 133, 113.004 131.910, 113.015 129.250 C 113.034 124.668, 114.269 122.505, 116.399 123.323 C 117.541 123.761, 118 125.236, 118 128.469 C 118 131.830, 118.387 133, 119.500 133 C 121.418 133, 121.640 123.532, 119.750 122.309 C 119.063 121.864, 115.013 121.463, 110.750 121.417 L 103 121.335 103 127.167 M 124.667 121.667 C 123.179 123.155, 124.173 123.994, 127.141 123.754 C 131.484 123.403, 131.899 125.609, 127.640 126.408 C 124.084 127.075, 122.641 128.900, 123.631 131.480 C 124.034 132.531, 125.619 132.928, 129.099 132.849 L 134 132.739 134 128.069 C 134 125.501, 133.460 122.860, 132.800 122.200 C 131.524 120.924, 125.785 120.548, 124.667 121.667 M 145 127 C 145 131.667, 145.333 133, 146.500 133 C 147.667 133, 148 131.667, 148 127 C 148 122.333, 147.667 121, 146.500 121 C 145.333 121, 145 122.333, 145 127 M 152.058 122.431 C 150.453 124.364, 150.403 129.576, 151.971 131.465 C 153.868 133.750, 159.689 133.450, 161 131 C 161.846 129.420, 161.760 129, 160.594 129 C 159.782 129, 158.840 129.450, 158.500 130 C 157.381 131.811, 154.248 131.058, 153.668 128.838 C 152.639 124.905, 156.605 120.934, 158.500 124 C 159.408 125.468, 161 125.218, 161 123.607 C 161 120.879, 154.099 119.971, 152.058 122.431 M 128.250 128.089 C 125.825 129.001, 125.336 130.472, 127.096 131.559 C 128.372 132.348, 131.406 129.660, 130.866 128.220 C 130.645 127.631, 129.607 127.579, 128.250 128.089" stroke="none" fill="#070908" fill-rule="evenodd"/><path d="M 90.500 51.278 C 82.478 54.559, 77.681 58.620, 74.588 64.750 C 73.320 67.263, 72.308 68, 70.122 68 C 63.990 68, 56 77.052, 56 84 C 56 88.025, 60.155 95.255, 63.898 97.742 C 68.023 100.483, 75.569 100.773, 80.605 98.383 C 82.568 97.452, 85.998 94.061, 88.699 90.383 C 91.277 86.872, 93.538 84, 93.724 84 C 93.910 84, 97.043 85.999, 100.685 88.443 L 107.307 92.885 110.699 88.443 C 114.342 83.672, 114.949 83.349, 116.800 85.200 C 117.733 86.133, 118 84.932, 118 79.796 L 118 73.192 112.750 75.184 C 106.352 77.612, 106.242 77.713, 108.274 79.260 C 109.763 80.395, 109.735 80.702, 107.934 82.881 L 105.968 85.262 100.250 81.381 C 97.105 79.246, 94.011 77.167, 93.375 76.761 C 92.640 76.292, 89.998 79.076, 86.150 84.373 C 82.343 89.612, 78.956 93.190, 77.058 93.976 C 66.453 98.369, 57.177 85.429, 64.809 76.887 C 67.079 74.347, 68.597 73.649, 72.708 73.254 C 77.324 72.811, 77.849 72.505, 78.357 69.964 C 78.665 68.424, 80.356 65.525, 82.114 63.523 C 91.723 52.579, 109.099 53.180, 117.500 64.747 C 119.870 68.010, 121.151 68.891, 123.602 68.939 C 127.488 69.015, 132.731 72.486, 135.815 77.024 C 137.759 79.884, 138.103 81.438, 137.753 85.791 C 137.303 91.404, 135.315 94.927, 130.619 98.438 C 128.136 100.294, 126.195 100.530, 111.180 100.803 C 95.377 101.091, 94.409 101.222, 92.772 103.303 C 91.822 104.511, 91.034 105.880, 91.022 106.345 C 91.010 106.810, 99.213 107.024, 109.250 106.821 C 125.523 106.491, 127.933 106.220, 131.500 104.323 C 140.866 99.340, 145.342 89.763, 142.955 79.814 C 141.351 73.124, 134.413 65.696, 128.233 64.050 C 125.525 63.329, 122.420 61.369, 119.733 58.686 C 117.405 56.361, 113.700 53.587, 111.500 52.521 C 106.686 50.189, 94.872 49.490, 90.500 51.278 M 47 118.827 C 47 121.431, 46.751 121.617, 43.837 121.189 C 40.118 120.644, 38 122.821, 38 127.191 C 38 130.692, 41.491 134.437, 43.827 133.442 C 44.747 133.050, 46.513 132.785, 47.750 132.853 C 49.916 132.973, 50 132.662, 50 124.489 C 50 117.610, 49.716 116, 48.500 116 C 47.520 116, 47 116.981, 47 118.827 M 82.250 117.739 C 81.563 117.974, 81 118.767, 81 119.500 C 81 120.233, 80.438 121.040, 79.750 121.292 C 78.750 121.658, 78.750 122.015, 79.750 123.075 C 80.438 123.804, 81 126.055, 81 128.078 C 81 132.191, 83.067 134.575, 85.737 133.540 C 87.415 132.890, 87.416 132.795, 85.750 131.568 C 83.884 130.194, 83.270 124, 85 124 C 85.550 124, 86 123.325, 86 122.500 C 86 121.675, 85.581 121, 85.070 121 C 84.558 121, 83.995 120.170, 83.820 119.156 C 83.644 118.141, 82.938 117.504, 82.250 117.739 M 140.158 119 C 140.158 120.375, 140.385 120.938, 140.662 120.250 C 140.940 119.563, 140.940 118.438, 140.662 117.750 C 140.385 117.063, 140.158 117.625, 140.158 119 M 127.813 120.683 C 128.534 120.972, 129.397 120.936, 129.729 120.604 C 130.061 120.272, 129.471 120.036, 128.417 120.079 C 127.252 120.127, 127.015 120.364, 127.813 120.683 M 53.477 123.394 C 50.288 128.262, 54.834 134.833, 60.420 133.431 C 63.375 132.689, 65 130.308, 65 126.721 C 65 121.207, 56.515 118.758, 53.477 123.394 M 68.571 122.571 C 66.086 125.057, 66.549 130.658, 69.394 132.523 C 72.105 134.299, 76.825 133.620, 77.704 131.328 C 78.550 129.125, 77.229 128.539, 74.594 129.950 C 71.525 131.592, 70 130.629, 70 127.048 C 70 123.747, 72.218 122.495, 74.994 124.228 C 77.375 125.715, 78.725 124.579, 77.020 122.524 C 75.375 120.541, 70.575 120.568, 68.571 122.571 M 89.518 122.624 C 86.908 125.235, 87.889 131.097, 91.250 132.969 C 93.720 134.344, 94.280 134.344, 96.750 132.969 C 98.825 131.813, 99.574 130.555, 99.803 127.843 C 100.169 123.497, 98.052 121, 94 121 C 92.429 121, 90.412 121.731, 89.518 122.624 M 102.416 126.990 C 102.481 132.004, 102.841 133.504, 104 133.586 C 104.825 133.645, 104.958 133.508, 104.296 133.282 C 103.591 133.041, 102.934 130.306, 102.712 126.686 L 102.331 120.500 102.416 126.990 M 135 121.941 C 135 122.459, 135.445 123.157, 135.989 123.493 C 136.555 123.843, 136.723 123.442, 136.382 122.552 C 135.717 120.820, 135 120.503, 135 121.941 M 141.250 122.556 C 140.563 123.304, 140.072 125.622, 140.160 127.708 L 140.320 131.500 140.741 128.009 C 140.973 126.089, 141.631 124.228, 142.203 123.874 C 142.776 123.521, 143.076 122.774, 142.872 122.214 C 142.650 121.607, 141.996 121.746, 141.250 122.556 M 42.200 124.200 C 39.572 126.828, 42.168 131.917, 45.487 130.643 C 48.090 129.644, 46.797 123, 44 123 C 43.670 123, 42.860 123.540, 42.200 124.200 M 57.170 123.875 C 55.105 125.182, 56.085 130.500, 58.391 130.500 C 61.035 130.500, 62.796 127.486, 61.423 125.310 C 60.093 123.201, 58.880 122.792, 57.170 123.875 M 92.046 124.445 C 91.386 125.240, 90.994 126.927, 91.173 128.195 C 91.415 129.900, 92.151 130.500, 94 130.500 C 95.849 130.500, 96.585 129.900, 96.827 128.195 C 97.144 125.959, 95.534 123, 94 123 C 93.585 123, 92.705 123.650, 92.046 124.445 M 123.655 124.250 C 123.909 124.662, 124.740 125, 125.500 125 C 126.260 125, 127.091 124.662, 127.345 124.250 C 127.600 123.838, 126.770 123.500, 125.500 123.500 C 124.230 123.500, 123.400 123.838, 123.655 124.250 M 117.398 128.491 C 117.480 132.496, 117.850 133.513, 119.270 133.639 C 120.408 133.740, 120.516 133.632, 119.572 133.335 C 118.642 133.042, 117.956 131.157, 117.700 128.187 L 117.296 123.500 117.398 128.491 M 150.079 125.583 C 150.127 126.748, 150.364 126.985, 150.683 126.188 C 150.972 125.466, 150.936 124.603, 150.604 124.271 C 150.272 123.939, 150.036 124.529, 150.079 125.583 M 113.160 128.677 C 113.043 131.727, 112.528 132.977, 111.250 133.311 C 109.610 133.739, 109.612 133.775, 111.281 133.884 C 113.503 134.029, 114.260 132.162, 113.730 127.845 C 113.354 124.775, 113.307 124.843, 113.160 128.677 M 144.232 128 C 144.232 129.925, 144.438 130.713, 144.689 129.750 C 144.941 128.787, 144.941 127.213, 144.689 126.250 C 144.438 125.287, 144.232 126.075, 144.232 128 M 126 129.902 C 126 130.940, 127.902 132.443, 128.466 131.850 C 128.649 131.658, 128.169 130.920, 127.399 130.211 C 126.630 129.501, 126 129.362, 126 129.902 M 133 133 C 132.099 133.582, 131.975 133.975, 132.691 133.985 C 133.346 133.993, 134.160 133.550, 134.500 133 C 135.267 131.758, 134.921 131.758, 133 133 M 137.853 133.253 C 138.357 133.757, 139.834 134.002, 141.135 133.797 C 143.136 133.482, 142.996 133.342, 140.219 132.881 C 138.231 132.552, 137.298 132.698, 137.853 133.253 M 144.768 133.168 C 145.350 133.750, 146.415 134.028, 147.137 133.788 C 147.886 133.538, 147.432 133.085, 146.080 132.731 C 144.417 132.296, 144.026 132.426, 144.768 133.168 M 125.750 133.662 C 126.438 133.940, 127.563 133.940, 128.250 133.662 C 128.938 133.385, 128.375 133.158, 127 133.158 C 125.625 133.158, 125.063 133.385, 125.750 133.662 M 155.269 133.693 C 156.242 133.947, 157.592 133.930, 158.269 133.656 C 158.946 133.382, 158.150 133.175, 156.500 133.195 C 154.850 133.215, 154.296 133.439, 155.269 133.693" stroke="none" fill="#438e4a" fill-rule="evenodd"/><path d="M -0 100.005 L -0 200.010 100.250 199.755 L 200.500 199.500 200.755 99.750 L 201.010 0 100.505 0 L 0 0 -0 100.005 M 0.481 100.500 C 0.481 155.500, 0.602 178.147, 0.750 150.826 C 0.898 123.506, 0.898 78.506, 0.750 50.826 C 0.602 23.147, 0.481 45.500, 0.481 100.500 M 90.500 51.278 C 82.478 54.559, 77.681 58.620, 74.588 64.750 C 73.320 67.263, 72.308 68, 70.122 68 C 63.990 68, 56 77.052, 56 84 C 56 88.025, 60.155 95.255, 63.898 97.742 C 68.023 100.483, 75.569 100.773, 80.605 98.383 C 82.568 97.452, 85.998 94.061, 88.699 90.383 C 91.277 86.872, 93.538 84, 93.724 84 C 93.910 84, 97.043 85.999, 100.685 88.443 L 107.307 92.885 110.699 88.443 C 114.342 83.672, 114.949 83.349, 116.800 85.200 C 117.733 86.133, 118 84.932, 118 79.796 L 118 73.192 112.750 75.184 C 106.352 77.612, 106.242 77.713, 108.274 79.260 C 109.763 80.395, 109.735 80.702, 107.934 82.881 L 105.968 85.262 100.250 81.381 C 97.105 79.246, 94.011 77.167, 93.375 76.761 C 92.640 76.292, 89.998 79.076, 86.150 84.373 C 82.343 89.612, 78.956 93.190, 77.058 93.976 C 66.453 98.369, 57.177 85.429, 64.809 76.887 C 67.079 74.347, 68.597 73.649, 72.708 73.254 C 77.324 72.811, 77.849 72.505, 78.357 69.964 C 78.665 68.424, 80.356 65.525, 82.114 63.523 C 91.723 52.579, 109.099 53.180, 117.500 64.747 C 119.870 68.010, 121.151 68.891, 123.602 68.939 C 127.488 69.015, 132.731 72.486, 135.815 77.024 C 137.759 79.884, 138.103 81.438, 137.753 85.791 C 137.303 91.404, 135.315 94.927, 130.619 98.438 C 128.136 100.294, 126.195 100.530, 111.180 100.803 C 95.377 101.091, 94.409 101.222, 92.772 103.303 C 91.822 104.511, 91.034 105.880, 91.022 106.345 C 91.010 106.810, 99.213 107.024, 109.250 106.821 C 125.523 106.491, 127.933 106.220, 131.500 104.323 C 140.866 99.340, 145.342 89.763, 142.955 79.814 C 141.351 73.124, 134.413 65.696, 128.233 64.050 C 125.525 63.329, 122.420 61.369, 119.733 58.686 C 117.405 56.361, 113.700 53.587, 111.500 52.521 C 106.686 50.189, 94.872 49.490, 90.500 51.278 M 47 118.827 C 47 121.431, 46.751 121.617, 43.837 121.189 C 40.118 120.644, 38 122.821, 38 127.191 C 38 130.692, 41.491 134.437, 43.827 133.442 C 44.747 133.050, 46.513 132.785, 47.750 132.853 C 49.916 132.973, 50 132.662, 50 124.489 C 50 117.610, 49.716 116, 48.500 116 C 47.520 116, 47 116.981, 47 118.827 M 145 117.500 C 145 118.325, 145.675 119, 146.500 119 C 147.325 119, 148 118.325, 148 117.500 C 148 116.675, 147.325 116, 146.500 116 C 145.675 116, 145 116.675, 145 117.500 M 82.250 117.739 C 81.563 117.974, 81 118.767, 81 119.500 C 81 120.233, 80.438 121.040, 79.750 121.292 C 78.750 121.658, 78.750 122.015, 79.750 123.075 C 80.438 123.804, 81 126.055, 81 128.078 C 81 132.191, 83.067 134.575, 85.737 133.540 C 87.415 132.890, 87.416 132.795, 85.750 131.568 C 83.884 130.194, 83.270 124, 85 124 C 85.550 124, 86 123.325, 86 122.500 C 86 121.675, 85.581 121, 85.070 121 C 84.558 121, 83.995 120.170, 83.820 119.156 C 83.644 118.141, 82.938 117.504, 82.250 117.739 M 137.292 118.750 C 136.936 119.713, 136.192 120.803, 135.637 121.174 C 134.971 121.619, 135.007 122.304, 135.746 123.193 C 136.360 123.934, 137.006 126.555, 137.181 129.020 C 137.469 133.071, 137.763 133.530, 140.250 133.816 C 142.214 134.042, 143 133.685, 143 132.566 C 143 131.705, 142.550 131, 142 131 C 141.450 131, 141 129.425, 141 127.500 C 141 125.575, 141.450 124, 142 124 C 142.550 124, 143 123.325, 143 122.500 C 143 121.675, 142.550 121, 142 121 C 141.450 121, 141 120.100, 141 119 C 141 116.528, 138.182 116.338, 137.292 118.750 M 105.704 120.731 L 101.908 121.126 102.204 127.303 C 102.441 132.249, 102.849 133.546, 104.250 133.813 C 105.727 134.095, 106 133.370, 106 129.180 C 106 125.842, 106.460 124.038, 107.402 123.676 C 109.526 122.861, 110 123.876, 110 129.240 C 110 133.373, 110.276 134.094, 111.750 133.815 C 113.046 133.569, 113.630 132.209, 114 128.569 C 114.701 121.682, 116.808 121.423, 117.195 128.175 C 117.431 132.287, 117.894 133.556, 119.250 133.814 C 120.760 134.101, 121 133.319, 121 128.109 C 121 123.094, 120.661 121.889, 119 121 C 117.564 120.232, 116.405 120.248, 114.893 121.057 C 113.369 121.873, 112.483 121.883, 111.693 121.093 C 111.092 120.492, 110.352 120.076, 110.050 120.168 C 109.748 120.261, 107.792 120.514, 105.704 120.731 M 124.937 121.864 C 122.739 123.657, 122.673 123.919, 124.263 124.538 C 125.232 124.915, 126.714 124.652, 127.555 123.954 C 128.662 123.035, 129.387 122.987, 130.179 123.779 C 130.970 124.570, 130.360 125.109, 127.968 125.728 C 123.863 126.792, 122.060 129.288, 123.617 131.750 C 124.427 133.030, 126.026 133.494, 129.566 133.476 L 134.406 133.452 134.128 127.976 C 133.817 121.854, 133.565 121.404, 129.937 120.509 C 128.156 120.070, 126.630 120.484, 124.937 121.864 M 152.657 122.055 C 147.848 125.838, 150.368 134, 156.345 134 C 158.481 134, 162 131.306, 162 129.671 C 162 128.493, 158.183 128.952, 157.773 130.180 C 156.993 132.522, 154 130.110, 154 127.138 C 154 124.244, 156.367 122.167, 157.527 124.044 C 158.268 125.243, 162 125.309, 162 124.122 C 162 122.945, 159.967 121.388, 157.407 120.605 C 156.041 120.187, 154.392 120.690, 152.657 122.055 M 53.477 123.394 C 50.288 128.262, 54.834 134.833, 60.420 133.431 C 63.375 132.689, 65 130.308, 65 126.721 C 65 121.207, 56.515 118.758, 53.477 123.394 M 68.571 122.571 C 66.086 125.057, 66.549 130.658, 69.394 132.523 C 72.105 134.299, 76.825 133.620, 77.704 131.328 C 78.550 129.125, 77.229 128.539, 74.594 129.950 C 71.525 131.592, 70 130.629, 70 127.048 C 70 123.747, 72.218 122.495, 74.994 124.228 C 77.375 125.715, 78.725 124.579, 77.020 122.524 C 75.375 120.541, 70.575 120.568, 68.571 122.571 M 89.518 122.624 C 86.908 125.235, 87.889 131.097, 91.250 132.969 C 93.720 134.344, 94.280 134.344, 96.750 132.969 C 98.825 131.813, 99.574 130.555, 99.803 127.843 C 100.169 123.497, 98.052 121, 94 121 C 92.429 121, 90.412 121.731, 89.518 122.624 M 144.740 122.250 C 144.479 122.938, 144.319 125.744, 144.383 128.487 C 144.474 132.385, 144.882 133.547, 146.250 133.810 C 147.773 134.103, 148 133.295, 148 127.573 C 148 122.621, 147.656 121, 146.607 121 C 145.841 121, 145.001 121.563, 144.740 122.250 M 42.200 124.200 C 39.572 126.828, 42.168 131.917, 45.487 130.643 C 48.090 129.644, 46.797 123, 44 123 C 43.670 123, 42.860 123.540, 42.200 124.200 M 57.170 123.875 C 55.105 125.182, 56.085 130.500, 58.391 130.500 C 61.035 130.500, 62.796 127.486, 61.423 125.310 C 60.093 123.201, 58.880 122.792, 57.170 123.875 M 92.046 124.445 C 91.386 125.240, 90.994 126.927, 91.173 128.195 C 91.415 129.900, 92.151 130.500, 94 130.500 C 95.849 130.500, 96.585 129.900, 96.827 128.195 C 97.144 125.959, 95.534 123, 94 123 C 93.585 123, 92.705 123.650, 92.046 124.445 M 127 129.500 C 127 130.325, 127.627 131, 128.393 131 C 129.159 131, 130.045 130.325, 130.362 129.500 C 130.753 128.480, 130.308 128, 128.969 128 C 127.885 128, 127 128.675, 127 129.500" stroke="none" fill="#f9fbf9" fill-rule="evenodd"/></svg>