<svg xmlns="http://www.w3.org/2000/svg" width="200" height="200" viewBox="0 0 200 200" version="1.1"><path d="M 3.250 89.728 L 7 90.121 7 100.060 C 7 106.020, 7.400 110, 8 110 C 8.600 110, 9 106.020, 9 100.060 L 9 90.121 12.750 89.728 C 14.813 89.513, 12.675 89.336, 8 89.336 C 3.325 89.336, 1.187 89.513, 3.250 89.728 M 18 99.500 L 18 110 24.750 109.807 L 31.500 109.615 25.250 109.260 L 19 108.905 19 104.505 L 19 100.105 24.250 99.737 L 29.500 99.370 24.250 99.185 L 19 99 19 94.548 L 19 90.095 25.250 89.740 L 31.500 89.385 24.750 89.193 L 18 89 18 99.500 M 33.189 99.691 L 33.378 110.500 33.939 101.500 L 34.500 92.500 38.058 100.936 C 40.015 105.576, 42.040 109.512, 42.558 109.682 C 43.076 109.852, 44.371 107.856, 45.435 105.246 C 46.499 102.636, 48.299 98.475, 49.435 96 L 51.500 91.500 52.059 101 L 52.617 110.500 52.809 99.750 C 52.914 93.838, 52.608 89, 52.129 89 C 51.650 89, 49.541 92.938, 47.442 97.750 C 45.343 102.563, 43.330 106.857, 42.968 107.294 C 42.607 107.731, 40.598 104.003, 38.504 99.010 C 36.410 94.016, 34.315 89.695, 33.848 89.406 C 33.382 89.118, 33.085 93.746, 33.189 99.691 M 55.180 99.630 C 55.279 105.608, 55.529 108.362, 55.735 105.750 L 56.110 101 59.990 101 C 66.509 101, 69.002 99.551, 68.985 95.775 C 68.961 90.659, 67.790 89.685, 61.079 89.199 L 55 88.760 55.180 99.630 M 71 99.500 L 71 110 77.750 109.807 L 84.500 109.615 78.250 109.260 L 72 108.905 72 104.502 L 72 100.100 77.750 99.739 L 83.500 99.378 77.750 99.189 L 72 99 72 94.548 L 72 90.095 78.250 89.740 L 84.500 89.385 77.750 89.193 L 71 89 71 99.500 M 92 99.500 C 92 109.333, 92.127 110, 94 110 C 95.873 110, 96 109.333, 96 99.500 C 96 89.667, 95.873 89, 94 89 C 92.127 89, 92 89.667, 92 99.500 M 97.667 89.667 C 97.300 90.033, 97 94.758, 97 100.167 L 97 110 99.526 110 C 101.972 110, 102.045 109.809, 101.817 104.042 C 101.688 100.765, 101.821 97.845, 102.113 97.553 C 102.406 97.261, 104.851 99.942, 107.546 103.511 C 111.058 108.160, 113.093 110, 114.724 110 C 116.947 110, 117 109.758, 117 99.500 C 117 89.745, 116.861 89, 115.044 89 C 113.310 89, 113.054 89.821, 112.794 96.207 L 112.500 103.413 107.010 96.207 C 101.999 89.627, 99.473 87.860, 97.667 89.667 M 118.920 91.750 C 118.875 93.263, 118.763 98.032, 118.670 102.349 L 118.500 110.198 125.201 109.819 C 132.917 109.383, 136.547 106.931, 137.573 101.462 C 138.903 94.373, 133.073 89, 124.050 89 C 119.227 89, 118.996 89.124, 118.920 91.750 M 139 99.500 C 139 109.333, 139.127 110, 141 110 C 142.873 110, 143 109.333, 143 99.500 C 143 89.667, 142.873 89, 141 89 C 139.127 89, 139 89.667, 139 99.500 M 145 91 C 145 92.619, 145.667 93, 148.500 93 L 152 93 152 101.500 C 152 109.333, 152.157 110, 154 110 C 155.843 110, 156 109.333, 156 101.500 L 156 93 159 93 C 161.333 93, 162 92.556, 162 91 C 162 89.157, 161.333 89, 153.500 89 C 145.667 89, 145 89.157, 145 91 M 164 99.500 L 164 110 171.500 110 C 178.333 110, 179 109.822, 179 108 C 179 106.242, 178.333 106, 173.500 106 C 168.770 106, 168 105.735, 168 104.107 C 168 101.822, 169.873 101, 175.082 101 C 177.835 101, 179 100.570, 179 99.552 C 179 98.511, 177.527 98.020, 173.750 97.802 C 169.176 97.539, 168.459 97.210, 168.180 95.250 C 167.882 93.148, 168.227 93, 173.430 93 C 178.333 93, 179 92.761, 179 91 C 179 89.178, 178.333 89, 171.500 89 L 164 89 164 99.500 M 181.636 90.250 C 182.051 90.938, 183.640 93.237, 185.167 95.361 L 187.943 99.222 185.142 103.361 C 180.637 110.017, 180.641 110, 183.359 110 C 185.120 110, 186.473 108.970, 188.036 106.441 L 190.236 102.883 192.654 106.441 C 194.331 108.909, 195.831 110, 197.546 110 L 200.020 110 196.395 104.539 L 192.769 99.079 195.885 94.842 C 199.515 89.906, 199.698 89, 197.068 89 C 196.006 89, 194.175 90.350, 193 92 C 191.825 93.650, 190.541 95, 190.148 95 C 189.754 95, 188.634 93.650, 187.659 92 C 186.441 89.938, 185.105 89, 183.384 89 C 181.647 89, 181.112 89.382, 181.636 90.250 M 56 95 L 56 100 60.066 100 C 65.708 100, 68 98.556, 68 95 C 68 91.444, 65.708 90, 60.066 90 L 56 90 56 95 M 123 99.500 L 123 106 126.427 106 C 128.939 106, 130.409 105.296, 131.927 103.365 C 133.067 101.916, 134 100.177, 134 99.500 C 134 98.823, 133.067 97.084, 131.927 95.635 C 130.409 93.704, 128.939 93, 126.427 93 L 123 93 123 99.500" stroke="none" fill="#0e0f0f" fill-rule="evenodd"/><path d="M 0 44.500 L 0 89 8.250 89.168 C 12.787 89.261, 14.813 89.513, 12.750 89.728 L 9 90.121 9 100.060 C 9 106.020, 8.600 110, 8 110 C 7.400 110, 7 106, 7 100 L 7 90 3.500 90 L 0 90 -0 145.005 L -0 200.010 100.250 199.755 L 200.500 199.500 200.748 99.750 L 200.996 0 100.498 0 L 0 0 0 44.500 M 0.460 45 C 0.460 69.475, 0.590 79.488, 0.749 67.250 C 0.908 55.013, 0.908 34.988, 0.749 22.750 C 0.590 10.513, 0.460 20.525, 0.460 45 M 18 99.500 L 18 110 24.750 109.807 L 31.500 109.615 25.250 109.260 L 19 108.905 19 104.505 L 19 100.105 24.250 99.737 L 29.500 99.370 24.250 99.185 L 19 99 19 94.548 L 19 90.095 25.250 89.740 L 31.500 89.385 24.750 89.193 L 18 89 18 99.500 M 33.189 99.691 L 33.378 110.500 33.939 101.500 L 34.500 92.500 38.058 100.936 C 40.015 105.576, 42.040 109.512, 42.558 109.682 C 43.076 109.852, 44.371 107.856, 45.435 105.246 C 46.499 102.636, 48.299 98.475, 49.435 96 L 51.500 91.500 52.059 101 L 52.617 110.500 52.809 99.750 C 52.914 93.838, 52.608 89, 52.129 89 C 51.650 89, 49.541 92.938, 47.442 97.750 C 45.343 102.563, 43.330 106.857, 42.968 107.294 C 42.607 107.731, 40.598 104.003, 38.504 99.010 C 36.410 94.016, 34.315 89.695, 33.848 89.406 C 33.382 89.118, 33.085 93.746, 33.189 99.691 M 55.180 99.630 C 55.279 105.608, 55.529 108.362, 55.735 105.750 L 56.110 101 59.990 101 C 66.509 101, 69.002 99.551, 68.985 95.775 C 68.961 90.659, 67.790 89.685, 61.079 89.199 L 55 88.760 55.180 99.630 M 71 99.500 L 71 110 77.750 109.807 L 84.500 109.615 78.250 109.260 L 72 108.905 72 104.502 L 72 100.100 77.750 99.739 L 83.500 99.378 77.750 99.189 L 72 99 72 94.548 L 72 90.095 78.250 89.740 L 84.500 89.385 77.750 89.193 L 71 89 71 99.500 M 92 99.500 C 92 109.333, 92.127 110, 94 110 C 95.873 110, 96 109.333, 96 99.500 C 96 89.667, 95.873 89, 94 89 C 92.127 89, 92 89.667, 92 99.500 M 97.667 89.667 C 97.300 90.033, 97 94.758, 97 100.167 L 97 110 99.526 110 C 101.972 110, 102.045 109.809, 101.817 104.042 C 101.688 100.765, 101.821 97.845, 102.113 97.553 C 102.406 97.261, 104.851 99.942, 107.546 103.511 C 111.058 108.160, 113.093 110, 114.724 110 C 116.947 110, 117 109.758, 117 99.500 C 117 89.745, 116.861 89, 115.044 89 C 113.310 89, 113.054 89.821, 112.794 96.207 L 112.500 103.413 107.010 96.207 C 101.999 89.627, 99.473 87.860, 97.667 89.667 M 118.920 91.750 C 118.875 93.263, 118.763 98.032, 118.670 102.349 L 118.500 110.198 125.201 109.819 C 132.917 109.383, 136.547 106.931, 137.573 101.462 C 138.903 94.373, 133.073 89, 124.050 89 C 119.227 89, 118.996 89.124, 118.920 91.750 M 139 99.500 C 139 109.333, 139.127 110, 141 110 C 142.873 110, 143 109.333, 143 99.500 C 143 89.667, 142.873 89, 141 89 C 139.127 89, 139 89.667, 139 99.500 M 145 91 C 145 92.619, 145.667 93, 148.500 93 L 152 93 152 101.500 C 152 109.333, 152.157 110, 154 110 C 155.843 110, 156 109.333, 156 101.500 L 156 93 159 93 C 161.333 93, 162 92.556, 162 91 C 162 89.157, 161.333 89, 153.500 89 C 145.667 89, 145 89.157, 145 91 M 164 99.500 L 164 110 171.500 110 C 178.333 110, 179 109.822, 179 108 C 179 106.242, 178.333 106, 173.500 106 C 168.770 106, 168 105.735, 168 104.107 C 168 101.822, 169.873 101, 175.082 101 C 177.835 101, 179 100.570, 179 99.552 C 179 98.511, 177.527 98.020, 173.750 97.802 C 169.176 97.539, 168.459 97.210, 168.180 95.250 C 167.882 93.148, 168.227 93, 173.430 93 C 178.333 93, 179 92.761, 179 91 C 179 89.178, 178.333 89, 171.500 89 L 164 89 164 99.500 M 181.636 90.250 C 182.051 90.938, 183.640 93.237, 185.167 95.361 L 187.943 99.222 185.142 103.361 C 180.637 110.017, 180.641 110, 183.359 110 C 185.120 110, 186.473 108.970, 188.036 106.441 L 190.236 102.883 192.654 106.441 C 194.322 108.896, 195.834 110, 197.526 110 L 199.979 110 200.250 154.750 C 200.494 194.985, 200.526 193.901, 200.565 144 C 200.589 113.475, 200.359 93.219, 200.054 98.987 L 199.500 109.474 196.154 104.250 L 192.808 99.026 195.904 94.816 C 199.514 89.907, 199.696 89, 197.068 89 C 196.006 89, 194.175 90.350, 193 92 C 191.825 93.650, 190.541 95, 190.148 95 C 189.754 95, 188.634 93.650, 187.659 92 C 186.441 89.938, 185.105 89, 183.384 89 C 181.647 89, 181.112 89.382, 181.636 90.250 M 56 95 L 56 100 60.066 100 C 65.708 100, 68 98.556, 68 95 C 68 91.444, 65.708 90, 60.066 90 L 56 90 56 95 M 123 99.500 L 123 106 126.427 106 C 128.939 106, 130.409 105.296, 131.927 103.365 C 133.067 101.916, 134 100.177, 134 99.500 C 134 98.823, 133.067 97.084, 131.927 95.635 C 130.409 93.704, 128.939 93, 126.427 93 L 123 93 123 99.500" stroke="none" fill="#fbfbfb" fill-rule="evenodd"/></svg>